<svg width="512" height="512" viewBox="0 0 512 512" fill="none" xmlns="http://www.w3.org/2000/svg" role="img" aria-label="Subhakrit Rajbhandari avatar">
  <defs>
    <linearGradient id="bgGrad" x1="0" y1="0" x2="512" y2="512" gradientUnits="userSpaceOnUse">
      <stop stop-color="#111827"/>
      <stop offset="1" stop-color="#0B0F14"/>
    </linearGradient>
    <linearGradient id="ringGrad" x1="96" y1="80" x2="416" y2="432" gradientUnits="userSpaceOnUse">
      <stop stop-color="#7DD3FC" stop-opacity="0.9"/>
      <stop offset="0.5" stop-color="#38BDF8" stop-opacity="0.35"/>
      <stop offset="1" stop-color="#3B82F6" stop-opacity="0.7"/>
    </linearGradient>
    <linearGradient id="figureGrad" x1="180" y1="140" x2="332" y2="392" gradientUnits="userSpaceOnUse">
      <stop stop-color="#94A3B8"/>
      <stop offset="1" stop-color="#334155"/>
    </linearGradient>
    <linearGradient id="shieldGrad" x1="256" y1="200" x2="256" y2="392" gradientUnits="userSpaceOnUse">
      <stop stop-color="#38BDF8"/>
      <stop offset="1" stop-color="#2563EB"/>
    </linearGradient>
    <radialGradient id="glow" cx="0" cy="0" r="1" gradientUnits="userSpaceOnUse" gradientTransform="translate(256 220) rotate(90) scale(260)">
      <stop stop-color="#38BDF8" stop-opacity="0.22"/>
      <stop offset="1" stop-color="#38BDF8" stop-opacity="0"/>
    </radialGradient>
  </defs>

  <rect width="512" height="512" rx="256" fill="url(#bgGrad)"/>

  <!-- subtle grid -->
  <g opacity="0.12">
    <path d="M0 128H512M0 256H512M0 384H512" stroke="#7DD3FC" stroke-width="1"/>
    <path d="M128 0V512M256 0V512M384 0V512" stroke="#7DD3FC" stroke-width="1"/>
  </g>

  <circle cx="256" cy="256" r="228" fill="url(#glow)"/>
  <circle cx="256" cy="256" r="196" stroke="url(#ringGrad)" stroke-width="2.5"/>

  <!-- decorative dots -->
  <circle cx="140" cy="150" r="4" fill="#7DD3FC" opacity="0.7"/>
  <circle cx="386" cy="120" r="3" fill="#38BDF8" opacity="0.6"/>
  <circle cx="390" cy="360" r="4" fill="#7DD3FC" opacity="0.5"/>
  <circle cx="126" cy="330" r="3" fill="#38BDF8" opacity="0.6"/>

  <!-- person silhouette -->
  <circle cx="256" cy="212" r="62" fill="url(#figureGrad)" opacity="0.95"/>
  <path d="M126 452C126 372 184 318 256 318C328 318 386 372 386 452V452H126V452Z" fill="url(#figureGrad)" opacity="0.95"/>

  <!-- shield -->
  <path d="M256 196L322 216V284C322 344 294 374 256 392C218 374 190 344 190 284V216L256 196Z" fill="url(#shieldGrad)"/>
  <path d="M256 226L291 236V272C291 304 278 322 256 334C234 322 221 304 221 272V236L256 226Z" stroke="#0B1220" stroke-width="6" stroke-linejoin="round"/>
  <path d="M236 272L250 286L278 254" stroke="#E0F2FE" stroke-width="9" stroke-linecap="round" stroke-linejoin="round"/>
</svg>
